<svg width="511" height="412" viewBox="0 0 511 412" fill="none" xmlns="http://www.w3.org/2000/svg">
<path d="M275.568 194.581C267.568 193.081 255.401 192.915 248.068 193.081C246 194 246.668 195.581 249.068 195.581H256.068C261.068 195.581 262.5 195.5 267 196C271.5 196.5 276.5 198 280.5 199.5C284.5 201 294.725 205.356 293.5 207.5C291.5 211 281.5 202.5 264.5 204C258.523 204.527 253.068 205.081 243.068 205.081C233.068 205.081 228.068 201.081 221.068 198.581C214.068 196.081 209.568 189.081 208.568 186.081C207.568 183.081 207.068 182.081 209.568 181.081C212.068 180.081 214.568 179.081 216.568 178.081C218.568 177.081 221.568 176.081 221.068 166.081C220.668 158.081 224.234 152.081 226.068 150.081C228.068 145.081 238.545 133.061 243.568 127.581C249.068 121.581 294.068 78.5815 297.568 75.0815C300.368 72.2814 312.234 58.9148 318.068 52.5815C319.068 51.0815 329.068 41.0815 333.068 34.0815C337.068 27.0815 342.193 21.0815 345.068 9.58145C345.568 7.58145 345.568 -0.918549 344.568 0.0814505C343.568 1.08145 341.068 4.58145 336.568 13.0815C332.068 21.5815 308.371 48.3229 297.568 61.5815C286.568 75.0815 240.568 125.081 235.568 130.081C230.543 135.106 221.068 146.081 216.568 154.081C212.068 162.081 211.068 170.081 209.568 174.081C208.368 177.281 207.401 177.081 207.068 176.581C206.901 176.915 206.468 176.381 206.068 171.581C205.568 165.581 203.068 160.081 199.568 155.081C196.068 150.081 184.568 141.081 179.068 137.581C173.568 134.081 154.568 125.581 147.068 121.581C139.568 117.581 102.068 98.0815 95.0677 94.0815C88.0677 90.0815 63.5677 74.5815 55.0677 69.5815C46.5677 64.5815 17.0677 48.5815 13.0677 46.0815C9.42032 43.8018 -0.932312 39.0815 0.067688 40.5815C1.06769 42.0815 1.06769 42.5815 4.56769 45.5815C8.06769 48.5815 11.5677 52.0815 16.5677 56.0815C21.5677 60.0815 23.0677 61.5815 29.0677 66.5815C35.0677 71.5815 47.5677 80.0815 52.5677 83.5815C55.6684 85.7519 66.5677 90.5815 62.5677 91.0815C61.0677 91.269 42.1588 83.9451 33.5677 81.0815C26.0677 78.5815 15.0677 71.5815 12.5677 70.5815C10.0677 69.5815 -0.932312 64.5815 3.06769 67.5815C7.06769 70.5815 11.0677 74.5815 17.5677 79.5815C23.8422 84.408 30.5826 88.7686 38.6885 94.0126L39.5677 94.5815C48.0677 100.081 60.5677 105.581 62.5677 106.581C64.5677 107.581 67.0677 109.081 64.5677 109.581C62.0677 110.081 56.0677 108.081 44.5677 105.081C33.2731 102.135 20.0677 94.5815 15.5677 93.0815C11.0677 91.5815 12.5677 92.5815 20.0677 98.0815C27.5677 103.581 27.7191 105.02 45.5677 114.581C59.5677 122.081 78.0677 128.081 78.5677 129.081C79.0677 130.081 72.5677 129.581 69.5677 129.081C67.5677 128.748 60.0677 127.581 54.0677 126.081C46.7272 124.246 43.5677 122.581 39.5677 121.081C35.5677 119.581 29.0677 116.581 33.0677 120.581C37.0677 124.581 44.5677 128.581 55.0677 133.581C65.5677 138.581 79.5677 142.581 83.5677 143.581C87.5677 144.581 92.0677 146.581 89.5677 146.581H81.0677C74.5677 146.581 71.5677 146.581 63.5677 145.581C58.5677 144.956 53.5677 142.581 50.0677 141.081C46.722 139.648 45.5677 139.081 47.5677 141.081C49.5677 143.081 52.0677 145.581 57.5677 148.581C63.0677 151.581 71.0677 154.081 76.5677 156.081C82.0677 158.081 87.5677 158.581 91.5677 159.581C95.5677 160.581 101.568 160.581 102.568 161.081C103.568 161.581 104.568 162.581 102.068 163.081C99.5677 163.581 95.5677 163.081 90.0677 163.081C84.5677 163.081 74.5677 162.581 70.5677 161.581C65.9659 160.431 58.0677 158.081 66.0677 162.581C74.0677 167.081 77.0677 168.081 85.5677 171.581C94.0677 175.081 105.568 175.081 110.568 175.581C115.568 176.081 121.568 176.081 118.068 177.581C116.068 178.439 111.068 178.796 107.068 179.081L107.068 179.081C100.068 179.581 94.0677 179.081 89.5677 179.081C85.0677 179.081 74.0677 175.581 79.0677 179.081C84.0677 182.581 93.0677 186.581 104.568 188.581C113.768 190.181 127.068 190.415 132.568 190.081C133.901 190.248 136.068 190.781 134.068 191.581C131.568 192.581 124.568 194.581 117.568 194.581C110.533 194.581 94.0677 193 94.0677 194.581C94.0677 196.081 96.5677 196.581 102.068 199.581C107.568 202.581 119.568 203.581 124.568 204.081C128.568 204.481 141.234 204.248 147.068 204.081C145.734 204.581 142.168 205.881 138.568 207.081C134.068 208.581 121.568 209.581 117.568 209.581C113.568 209.581 100.068 207.581 107.568 211.081C109.568 212.581 115.568 215.581 121.068 216.581C126.568 217.581 135.068 218.081 141.068 217.581C147.068 217.081 152.068 216.081 153.068 216.581C154.068 217.081 151.568 217.581 149.568 219.081C147.568 220.581 141.568 220.581 138.068 221.581C134.568 222.581 125.568 223.081 121.568 222.581C117.568 222.081 112.068 221.081 115.568 223.081C119.068 225.081 121.568 227.081 132.568 229.081C141.368 230.681 153.901 228.081 159.068 226.581C160.401 227.748 163.468 230.481 165.068 232.081C166.668 233.681 171.401 236.415 173.568 237.581C167.901 240.748 153.568 249.581 141.568 259.581C126.568 272.081 113.068 290.581 106.568 301.581C100.068 312.581 93.5677 331.081 92.5677 334.081C91.5677 337.081 88.5677 351.081 94.5677 337.081C100.568 323.081 115.568 303.581 122.068 296.081C128.568 288.581 133.068 286.581 131.568 289.081C130.068 291.581 123.068 299.581 118.568 307.081C114.068 314.581 107.568 331.081 107.568 332.581C107.568 334.081 107.568 336.081 110.068 330.081C112.568 324.081 118.568 316.581 121.568 313.081C124.568 309.581 125.068 311.081 124.568 312.081C124.068 313.081 123.068 314.581 121.568 319.081C120.068 323.581 118.568 328.081 116.568 335.081C114.568 342.081 113.568 357.081 112.568 363.081C111.568 369.081 112.068 396.081 112.568 399.581C112.975 402.431 114.653 409.604 115.037 411.35C115.044 411.453 115.054 411.53 115.068 411.581C115.145 411.865 115.125 411.749 115.037 411.35C114.857 408.502 117.486 386.387 118.568 379.581C119.85 371.518 125.555 351.945 127.568 345.581C130.022 337.821 139.568 316.581 141.068 314.581C142.568 312.581 146.568 308.581 145.068 311.081C143.568 313.581 140.568 321.581 139.068 324.081C137.568 326.581 134.068 340.581 133.568 343.081C133.068 345.581 132.068 353.581 133.068 353.081C134.068 352.581 134.068 350.581 135.068 348.081C136.068 345.581 138.068 340.581 139.068 337.581C140.068 334.581 144.068 327.081 144.068 328.581C144.068 330.081 141.568 339.081 140.568 343.081C139.568 347.081 140.068 352.081 140.068 355.581C140.068 358.381 140.068 365.915 140.568 369.081C141.068 370.248 142.653 361.589 143.068 356.581C144.148 343.543 152.61 324.526 154.568 319.081C156.931 312.508 166.901 296.248 172.068 289.081C175.901 289.081 187.068 288.462 195.068 288.081C205.568 287.581 221.068 281.081 229.068 277.581C237.068 274.081 245.568 264.081 259.068 252.581C266.002 246.674 274.256 241.698 282.068 238.581C289.463 235.631 300.068 232.081 311.068 230.581C322.665 229 347.568 231.581 354.568 232.081C361.568 232.581 388.068 235.081 400.568 238.081C402.105 238.45 403.739 237.639 399.068 236.081C394.568 234.581 382.295 231.627 365.068 228.581C348.267 225.611 326.942 222.504 320.068 221.081C310.068 219.012 301.068 208.081 295.568 203.581C290.068 199.081 281.32 195.66 275.568 194.581Z" fill="black"/>
<path d="M334.068 51.0814C340.468 42.6814 342.401 31.2481 342.568 26.5814C342.234 26.9148 341.268 28.1814 340.068 30.5814C338.868 32.9814 335.568 35.5814 332.068 39.0814C328.568 42.5814 324.568 48.0814 319.068 54.0814C313.568 60.0814 301.568 73.0814 297.568 77.0814C293.568 81.0814 288.068 87.5814 286.568 89.5814C285.368 91.1814 279.401 96.5814 276.568 99.0814C275.568 100.248 274.168 102.081 276.568 100.081C278.568 98.4814 281.068 96.7481 282.068 96.0814C284.068 94.5814 292.568 89.0814 295.068 87.5814C297.068 86.3814 306.901 78.7481 311.568 75.0814C316.068 71.5814 326.068 61.5814 334.068 51.0814Z" fill="url(#paint0_linear_3_4)"/>
<path d="M324.568 78.5814C331.768 70.5814 336.234 59.5814 337.568 54.5814C337.401 54.0814 336.468 53.7814 334.068 56.5814C331.068 60.0814 328.568 62.0814 326.068 64.5814C323.568 67.0814 316.068 72.5814 311.568 77.0814C307.068 81.5814 297.568 91.5814 291.568 97.0814C285.568 102.581 277.068 110.581 271.068 115.581C265.068 120.581 261.068 123.081 258.568 125.081C256.068 127.081 262.068 124.081 267.568 120.581C273.068 117.081 271.568 118.081 282.068 112.581C292.568 107.081 297.568 103.081 303.068 99.0814C308.568 95.0814 315.568 88.5815 324.568 78.5814Z" fill="url(#paint1_linear_3_4)"/>
<path d="M329.568 80.5815C328.068 82.5815 326.068 84.0815 324.568 85.0815C322.901 86.5815 318.368 90.3815 313.568 93.5815C307.568 97.5815 304.568 100.081 300.068 104.581C295.568 109.081 291.068 113.081 284.568 118.581C278.068 124.081 269.568 130.081 264.068 134.081C258.568 138.081 246.068 144.331 257.568 138.581C264.568 135.081 267.068 134.581 273.068 132.081C279.068 129.581 283.568 127.581 292.568 122.581C301.568 117.581 306.068 114.081 313.068 107.581C320.068 101.081 326.068 91.5815 327.568 89.5815C329.068 87.5815 331.068 78.5815 329.568 80.5815Z" fill="url(#paint2_linear_3_4)"/>
<path d="M304.068 130.081C310.068 125.681 317.901 116.415 321.068 112.081C322.568 108.581 324.968 102.181 322.568 104.581C319.568 107.581 320.068 107.081 316.068 110.081C312.068 113.081 309.068 114.581 302.568 118.581C296.068 122.581 292.41 125.191 284.068 130.927C276.068 136.427 268.568 141.927 262.068 146.427C257.131 149.845 251.04 152.775 248.615 153.767C248.053 153.841 247.77 153.88 247.568 154.081C247.447 154.202 247.848 154.082 248.615 153.767C249.446 153.659 250.885 153.476 253.568 152.581C258.068 151.081 258.568 151.081 265.068 149.081C271.568 147.081 275.568 145.081 282.568 142.581C289.568 140.081 296.568 135.581 304.068 130.081Z" fill="url(#paint3_linear_3_4)"/>
<path d="M298.568 137.581C304.168 134.781 309.901 130.748 312.068 129.081C313.234 128.581 315.468 127.781 315.068 128.581L315.068 128.581C314.568 129.581 314.068 130.581 312.068 133.581C310.068 136.581 308.568 138.081 304.068 142.581C299.568 147.081 294.068 151.581 287.068 155.081C280.068 158.581 274.068 161.081 268.068 162.081C262.068 163.081 259.068 164.581 254.568 165.581C250.068 166.581 243.568 168.081 245.068 167.081C246.568 166.081 251.568 164.581 254.568 163.081C257.568 161.581 259.568 160.081 267.068 155.581C274.568 151.081 275.568 150.081 282.568 146.081C289.568 142.081 291.568 141.081 298.568 137.581L298.568 137.581Z" fill="url(#paint4_linear_3_4)"/>
<path d="M292.568 155.081C297.068 153.081 301.068 150.081 303.068 148.081C302.901 148.748 302.268 150.581 301.068 152.581C299.568 155.081 299.568 155.081 294.068 160.581C288.568 166.081 288.068 166.581 281.068 170.581C274.068 174.581 267.568 176.581 263.068 177.081C258.568 177.581 253.068 178.081 247.068 178.081C241.568 178.081 234.068 179.581 232.068 180.081C230.068 180.581 229.068 180.081 235.568 178.081C242.068 176.081 240.068 176.081 249.068 173.581C258.068 171.081 260.568 169.581 269.568 165.581C278.568 161.581 288.068 157.081 292.568 155.081Z" fill="url(#paint5_linear_3_4)"/>
<path d="M278.348 215.421C277.87 214.474 277.391 214 275.957 214C275.638 214 275 214.189 275 214.947C275 215.895 275 215.421 275.478 216.368C275.957 217.316 277.391 216.842 277.87 216.842C278.348 216.842 278.826 216.368 278.348 215.421Z" fill="#D9D9D9" stroke="white" stroke-width="2" stroke-linecap="round"/>
<path d="M331.64 309.544C330.872 310.056 329.827 310.632 328.504 311.272C327.181 311.912 325.624 312.445 323.832 312.872C322.083 313.299 320.163 313.512 318.072 313.512C314.488 313.469 311.245 312.829 308.344 311.592C305.485 310.355 303.053 308.669 301.048 306.536C299.043 304.403 297.485 301.949 296.376 299.176C295.309 296.36 294.776 293.373 294.776 290.216C294.776 286.76 295.331 283.581 296.44 280.68C297.592 277.736 299.192 275.197 301.24 273.064C303.288 270.888 305.699 269.203 308.472 268.008C311.288 266.813 314.36 266.216 317.688 266.216C320.461 266.216 322.979 266.6 325.24 267.368C327.501 268.093 329.443 268.968 331.064 269.992L328.568 275.752C327.288 274.899 325.731 274.088 323.896 273.32C322.104 272.552 320.099 272.168 317.88 272.168C315.619 272.168 313.485 272.616 311.48 273.512C309.475 274.408 307.704 275.667 306.168 277.288C304.632 278.909 303.416 280.808 302.52 282.984C301.667 285.117 301.24 287.421 301.24 289.896C301.24 292.413 301.624 294.76 302.392 296.936C303.203 299.069 304.333 300.925 305.784 302.504C307.277 304.083 309.069 305.32 311.16 306.216C313.251 307.112 315.597 307.56 318.2 307.56C320.547 307.56 322.637 307.197 324.472 306.472C326.307 305.747 327.821 304.936 329.016 304.04L331.64 309.544ZM353.549 313.64C351.075 313.64 348.813 313.107 346.765 312.04C344.76 310.973 343.16 309.416 341.965 307.368C340.813 305.277 340.237 302.739 340.237 299.752C340.237 296.808 340.856 294.269 342.093 292.136C343.331 289.96 344.973 288.296 347.021 287.144C349.112 285.992 351.395 285.416 353.869 285.416C356.344 285.416 358.435 285.992 360.141 287.144C361.848 288.253 363.149 289.576 364.045 291.112L363.661 292.136L364.237 286.504H369.742V313H363.789V306.088L364.429 307.624C364.259 308.051 363.875 308.605 363.278 309.288C362.723 309.928 361.955 310.589 360.973 311.272C360.035 311.955 358.947 312.531 357.709 313C356.472 313.427 355.085 313.64 353.549 313.64ZM355.149 308.712C356.643 308.712 357.987 308.435 359.181 307.88C360.376 307.325 361.357 306.557 362.125 305.576C362.936 304.552 363.491 303.336 363.789 301.928V296.744C363.448 295.464 362.851 294.355 361.997 293.416C361.144 292.435 360.12 291.688 358.925 291.176C357.731 290.621 356.408 290.344 354.957 290.344C353.379 290.344 351.928 290.728 350.605 291.496C349.283 292.264 348.216 293.331 347.405 294.696C346.637 296.061 346.253 297.661 346.253 299.496C346.253 301.203 346.659 302.76 347.469 304.168C348.28 305.576 349.368 306.685 350.733 307.496C352.099 308.307 353.571 308.712 355.149 308.712ZM381.961 263.464H387.913V313H381.961V263.464ZM400.132 286.504H406.084V313H400.132V286.504ZM399.684 276.904C399.684 275.965 400.046 275.176 400.772 274.536C401.54 273.896 402.372 273.576 403.268 273.576C404.164 273.576 404.953 273.896 405.636 274.536C406.361 275.176 406.724 275.965 406.724 276.904C406.724 277.885 406.361 278.696 405.636 279.336C404.953 279.933 404.164 280.232 403.268 280.232C402.372 280.232 401.54 279.912 400.772 279.272C400.046 278.632 399.684 277.843 399.684 276.904ZM434.43 313.64C431.998 313.64 429.843 313.107 427.966 312.04C426.131 310.973 424.659 309.629 423.55 308.008L424.254 306.152V313H418.302V263.464H424.19V292.584L423.998 290.344C425.064 288.893 426.579 287.72 428.542 286.824C430.547 285.885 432.766 285.416 435.198 285.416C437.587 285.416 439.763 285.992 441.726 287.144C443.688 288.296 445.246 289.917 446.398 292.008C447.592 294.056 448.19 296.509 448.19 299.368C448.19 302.355 447.55 304.915 446.27 307.048C445.032 309.181 443.368 310.824 441.278 311.976C439.187 313.085 436.904 313.64 434.43 313.64ZM433.214 308.584C434.92 308.584 436.456 308.179 437.822 307.368C439.187 306.557 440.254 305.469 441.022 304.104C441.79 302.696 442.174 301.096 442.174 299.304C442.174 297.597 441.768 296.061 440.958 294.696C440.19 293.288 439.123 292.179 437.758 291.368C436.435 290.557 434.92 290.152 433.214 290.152C431.763 290.152 430.419 290.429 429.182 290.984C427.944 291.539 426.899 292.307 426.046 293.288C425.192 294.227 424.595 295.336 424.254 296.616V301.928C424.595 303.208 425.171 304.36 425.982 305.384C426.792 306.365 427.816 307.155 429.054 307.752C430.291 308.307 431.678 308.584 433.214 308.584ZM463.471 286.504L464.047 294.184L463.727 293.16C464.41 291.539 465.391 290.173 466.671 289.064C467.994 287.912 469.359 287.037 470.767 286.44C472.218 285.8 473.476 285.48 474.543 285.48L474.223 291.368C472.218 291.24 470.447 291.624 468.911 292.52C467.418 293.416 466.223 294.611 465.327 296.104C464.474 297.597 464.047 299.197 464.047 300.904V313H458.159V286.504H463.471ZM486.382 325.736L503.854 286.504H509.358L492.27 325.736H486.382ZM492.91 313.192L480.174 286.504H486.894L497.582 310.184L492.91 313.192Z" fill="#0B1115" fill-opacity="0.78"/>
<defs>
<linearGradient id="paint0_linear_3_4" x1="308.905" y1="26.5814" x2="308.905" y2="100.971" gradientUnits="userSpaceOnUse">
<stop stop-color="#52BBAD"/>
<stop offset="1" stop-color="#A0E5C5"/>
</linearGradient>
<linearGradient id="paint1_linear_3_4" x1="297.776" y1="54.2543" x2="297.776" y2="125.723" gradientUnits="userSpaceOnUse">
<stop stop-color="#2D7E8B"/>
<stop offset="1" stop-color="#50B9AB"/>
</linearGradient>
<linearGradient id="paint2_linear_3_4" x1="291.48" y1="80.2935" x2="291.48" y2="140.904" gradientUnits="userSpaceOnUse">
<stop stop-color="#273461"/>
<stop offset="1" stop-color="#2B617E"/>
</linearGradient>
<linearGradient id="paint3_linear_3_4" x1="285.566" y1="104.056" x2="285.566" y2="154.127" gradientUnits="userSpaceOnUse">
<stop stop-color="#9C414D"/>
<stop offset="1" stop-color="#9F404C"/>
</linearGradient>
<linearGradient id="paint4_linear_3_4" x1="279.981" y1="128.242" x2="279.981" y2="167.411" gradientUnits="userSpaceOnUse">
<stop stop-color="#E37040"/>
<stop offset="1" stop-color="#C95646"/>
</linearGradient>
<linearGradient id="paint5_linear_3_4" x1="266.813" y1="148.081" x2="266.813" y2="180.262" gradientUnits="userSpaceOnUse">
<stop stop-color="#FDBF2E"/>
<stop offset="1" stop-color="#EC803C"/>
</linearGradient>
</defs>
</svg>
