<svg width="414" height="275" viewBox="0 0 414 275" fill="none" xmlns="http://www.w3.org/2000/svg">
<path d="M376.287 85.5318L388.863 80.6204C385.333 71.582 377.566 67.7975 372.552 66.1792C368.439 64.8516 363.792 64.2948 361.882 64.0659C361.566 64.0281 361.325 63.9992 361.174 63.9773C361.175 63.9773 361.133 63.9712 361.033 63.955C360.937 63.9397 360.813 63.9191 360.655 63.8924C360.339 63.8388 359.931 63.7677 359.431 63.6787C358.431 63.5009 357.128 63.2636 355.575 62.9774C352.47 62.4054 348.442 61.6519 343.993 60.8169C342.144 60.4699 340.223 60.109 338.268 59.7416C330.925 58.3619 323.101 56.8916 316.809 55.7313C287.924 49.3767 244.649 39.8895 208.404 32.0151C190.237 28.0683 173.82 24.523 161.861 21.9796C155.888 20.7091 150.995 19.6818 147.544 18.9779C145.828 18.628 144.411 18.3461 143.375 18.1519C142.873 18.0577 142.361 17.9654 141.913 17.8946C141.708 17.8621 141.367 17.8101 140.983 17.7678C140.804 17.748 140.444 17.7107 140 17.6913C139.777 17.6816 139.402 17.6702 138.94 17.6853C138.591 17.6967 137.62 17.736 136.415 18.0056C135.358 18.242 134.019 18.729 133.621 18.8737C133.588 18.8856 133.562 18.8951 133.542 18.9021C132.706 19.2028 131.583 19.6189 130.217 20.1445C127.479 21.1971 123.691 22.7155 119.158 24.6701C110.11 28.5711 97.9609 34.2652 85.2107 41.5249C72.504 48.7598 58.9008 57.7181 47.1206 68.2165C35.4352 78.6304 24.8073 91.2091 19.1297 105.847C14.4986 117.788 13.5562 133.343 14.2134 148.542C14.8874 164.126 17.333 180.955 20.5925 196.371C23.8436 211.747 28.0072 226.201 32.3036 236.989C34.4144 242.289 36.7945 247.313 39.4358 251.206C40.7325 253.117 42.5048 255.379 44.8372 257.243C47.0654 259.023 51.3759 261.66 57.134 261.03C61.5865 260.544 142.808 250.778 223.136 240.849C263.331 235.881 303.37 230.863 333.55 226.935C348.631 224.973 361.297 223.276 370.304 221.99C374.793 221.349 378.458 220.799 381.087 220.361C382.379 220.146 383.565 219.934 384.524 219.733C384.978 219.638 385.589 219.502 386.216 219.325C386.515 219.241 387.041 219.086 387.653 218.849C387.66 218.847 387.67 218.843 387.683 218.838C387.98 218.727 389.836 218.029 391.664 216.474C388.458 219.207 394.321 214.868 396.533 211.287C399.197 206.972 400.055 201.838 400.026 196.362L400.024 195.825L399.978 195.289C399.442 188.974 398.761 180.36 397.987 170.573C397.052 158.746 395.982 145.206 394.868 131.945C393.874 120.122 392.873 108.87 391.97 100.169C391.519 95.8314 391.082 92.0198 390.672 89.0451C390.467 87.5662 390.254 86.1759 390.029 84.9749C389.862 84.0855 389.518 82.3 388.863 80.6204L376.287 85.5318Z" fill="white" stroke="url(#paint0_linear_209_943)" stroke-width="27.002"/>
<path d="M139.362 31.1811C140.559 30.9133 256.375 56.2598 314.134 68.9666C330.066 71.9033 356.149 76.8914 359.239 77.3389C363.713 77.9868 373.526 78.4631 376.286 85.5318C378.603 91.4644 384.23 169.415 386.525 196.432C386.569 204.818 383.74 205.488 382.915 206.191C380.084 208.604 64.3344 246.662 55.6673 247.609C43.6866 248.919 17.3225 147.843 31.7171 110.73C50.1517 63.2002 137.865 31.5159 139.362 31.1811Z" fill="white" stroke="#D39572" stroke-opacity="0.38" stroke-width="2.87813"/>
<g filter="url(#filter0_i_209_943)">
<path d="M128.663 103.441C124.968 103.94 114.85 109.603 111.28 110.086C108.156 110.509 100.99 107.328 97.3166 107.682C93.6435 108.036 86.3113 113.608 82.5678 113.971C78.8244 114.334 69.0175 111.023 65.6349 111.409C62.2524 111.796 54.4759 116.559 48.9072 113.971C35.3741 107.682 35.0655 120.611 35.3737 122.889C35.7591 125.737 36.0242 128.06 36.5176 132.779C37.011 137.497 34.3247 141.663 35.1917 148.071C36.0587 154.478 39.1234 160.756 39.74 165.313C40.3565 169.87 39.2763 178.259 39.7388 181.676C40.2012 185.094 47.1803 194.975 47.7273 197.947C48.2744 200.918 49.8736 212.641 50.3938 216.486C50.914 220.33 50.3938 237.147 64.4832 240.245C68.9742 241.232 85.5773 233.048 89.1372 232.566C92.6971 232.084 118.109 232.554 124.148 232.172C130.186 231.79 154.936 224.225 159.778 223.57C164.619 222.914 190.497 224.21 197.371 223.57C204.244 222.93 234.324 216.027 239.47 215.476C244.616 214.924 276.251 213.912 281.397 213.36C286.542 212.809 311.268 205.822 317.391 204.993C323.514 204.165 346.892 205.513 350.737 204.993C354.581 204.473 371.666 205.352 376.669 204.82C381.672 204.288 382.472 200.554 383.226 197.552C383.98 194.55 374.605 85.6154 372.55 83.2835C370.494 80.9515 368.909 86.3861 366.061 86.7715C363.213 87.1568 359.172 84.0786 353.611 85.846C348.05 87.6135 339.16 91.5714 331.49 92.7542C323.82 93.937 313.762 88.1927 306.358 89.1946C298.953 90.1965 289.428 94.8203 283.267 95.364C277.105 95.9077 258.173 92.0892 252.477 92.8599C246.781 93.6305 240.874 98.1999 233.593 99.0401C226.311 99.8804 216.662 93.9358 212.117 95.7108C207.572 97.4858 196.888 102.121 189.846 103.654C182.803 105.187 169.17 101.957 164.687 100.968C160.203 99.98 151.397 105.667 147.557 106.186C143.997 106.668 132.627 102.904 128.663 103.441Z" fill="#FBF3DF"/>
</g>
<g filter="url(#filter1_i_209_943)">
<path d="M83.3741 144.978C81.0663 141.214 84.2765 136.584 85.4118 135.231C86.3925 134.063 89.8793 133.859 91.7709 134.371C94.1354 135.01 95.8731 136.333 96.9937 139.299C98.1144 142.265 96.0755 147.576 92.6167 149.483C89.1579 151.39 85.6819 148.743 83.3741 144.978Z" fill="url(#paint1_linear_209_943)"/>
</g>
<path d="M84.3095 134.306C83.6778 135.058 82.4827 136.699 81.7499 138.707C81.0187 140.71 80.6694 143.32 82.1472 145.731C83.3742 147.732 84.9786 149.555 86.8585 150.612C88.8 151.703 91.0689 151.979 93.3114 150.743C95.4057 149.589 96.9646 147.482 97.8521 145.339C98.7276 143.224 99.0801 140.749 98.3399 138.79C97.7163 137.14 96.8862 135.858 95.8104 134.892C94.7335 133.925 93.4892 133.344 92.1464 132.981C90.99 132.669 89.4597 132.593 88.0951 132.74C87.4038 132.815 86.7008 132.952 86.0719 133.176C85.4694 133.389 84.7916 133.732 84.3095 134.306Z" stroke="#315457" stroke-width="2.87813"/>
<g filter="url(#filter2_i_209_943)">
<path d="M172.123 194.979C168.337 191.489 167.089 185.31 173.176 178.276C175.896 175.321 188.845 172.706 193.036 181.247C197.228 189.788 196.35 193.495 189.607 197.72C182.864 201.944 175.908 198.469 172.123 194.979Z" fill="url(#paint2_linear_209_943)"/>
</g>
<path d="M172.117 177.302L172.102 177.318L172.088 177.335C168.878 181.044 167.48 184.673 167.508 187.969C167.536 191.272 168.997 194.055 171.147 196.037C175.105 199.686 182.792 203.687 190.371 198.939C193.829 196.773 196.165 194.516 196.829 191.403C197.477 188.367 196.439 184.915 194.328 180.613C191.898 175.662 186.958 174.059 182.57 174.012C180.36 173.988 178.203 174.349 176.402 174.921C174.651 175.477 173.048 176.29 172.117 177.302Z" stroke="#043763" stroke-width="2.87813"/>
<g filter="url(#filter3_i_209_943)">
<path d="M121.749 152.359C119.227 146.654 123.51 138.633 127.378 135.319C130.835 132.358 141.54 130.472 148.227 135.056C156.586 140.785 155.231 148.876 154.941 154.496C154.652 160.117 147.522 164.337 139.257 165.339C130.992 166.341 124.272 158.064 121.749 152.359Z" fill="url(#paint3_linear_209_943)"/>
</g>
<path d="M126.442 134.226L126.442 134.226C124.31 136.052 122.144 139.088 120.829 142.413C119.521 145.72 118.951 149.589 120.433 152.941C121.768 155.959 124.195 159.633 127.401 162.446C130.605 165.258 134.745 167.336 139.43 166.768C143.734 166.246 147.807 164.881 150.883 162.851C153.941 160.831 156.201 158.012 156.378 154.57C156.402 154.101 156.436 153.604 156.471 153.084C156.84 147.618 157.383 139.587 149.041 133.869C145.34 131.332 140.632 130.641 136.493 130.922C132.401 131.201 128.504 132.459 126.442 134.226Z" stroke="#315457" stroke-width="2.87813"/>
<g filter="url(#filter4_i_209_943)">
<path d="M200.364 161.793C194.942 157.42 195.351 144.116 201.898 137.434C205.289 133.94 213.396 133.671 217.473 134.223L217.534 134.231C221.607 134.783 227.326 135.557 230.841 144.283C234.373 153.051 231.298 160.919 221.654 165.122C212.01 169.325 205.786 166.165 200.364 161.793Z" fill="url(#paint4_linear_209_943)"/>
</g>
<path d="M200.868 136.43C197.291 140.081 195.462 145.443 195.205 150.405C194.953 155.302 196.221 160.3 199.461 162.913C202.237 165.152 205.348 167.19 209.096 168.074C212.879 168.966 217.164 168.649 222.229 166.441C227.299 164.231 230.801 160.985 232.512 156.98C234.225 152.969 234.053 148.405 232.175 143.745C230.314 139.123 227.806 136.476 225.108 134.941C222.487 133.449 219.806 133.087 217.794 132.814L217.727 132.805L217.727 132.805L217.666 132.797L200.868 136.43ZM200.868 136.43C202.905 134.332 206.178 133.334 209.219 132.887C212.321 132.431 215.502 132.504 217.666 132.797L200.868 136.43Z" stroke="#65002C" stroke-opacity="0.48" stroke-width="2.87813"/>
<path d="M200.868 136.43C197.291 140.081 195.462 145.443 195.205 150.405C194.953 155.302 196.221 160.3 199.461 162.913C202.237 165.152 205.348 167.19 209.096 168.074C212.879 168.966 217.164 168.649 222.229 166.441C227.299 164.231 230.801 160.985 232.512 156.98C234.225 152.969 234.053 148.405 232.175 143.745C230.314 139.123 227.806 136.476 225.108 134.941C222.487 133.449 219.806 133.087 217.794 132.814L217.727 132.805L217.727 132.805L217.666 132.797L200.868 136.43ZM200.868 136.43C202.905 134.332 206.178 133.334 209.219 132.887C212.321 132.431 215.502 132.504 217.666 132.797L200.868 136.43Z" stroke="#65002C" stroke-opacity="0.48" stroke-width="2.87813"/>
<g filter="url(#filter5_i_209_943)">
<path d="M266.265 161.659C261.373 156.042 258.531 146.073 269.329 136.791C272.782 133.262 280.251 132.67 287.11 136.698C293.969 140.727 299.424 148.801 293.209 158.013C286.993 167.226 271.158 167.276 266.265 161.659Z" fill="url(#paint5_linear_209_943)"/>
</g>
<path d="M268.345 135.739C262.721 140.591 260.505 145.763 260.474 150.59C260.444 155.378 262.565 159.601 265.18 162.604C266.646 164.287 268.837 165.451 271.274 166.139C273.728 166.833 276.536 167.075 279.365 166.831C284.987 166.345 290.974 163.899 294.401 158.818C297.761 153.839 298.027 149.021 296.402 144.885C294.807 140.829 291.458 137.583 287.839 135.457C280.672 131.248 272.443 131.61 268.345 135.739Z" stroke="#315457" stroke-width="2.87813"/>
<g filter="url(#filter6_i_209_943)">
<path d="M308.33 127.448C301.976 126.376 294.611 117.85 304.987 108.856C310.652 103.812 320.572 106.748 321.709 115.15C322.846 123.552 314.685 128.521 308.33 127.448Z" fill="url(#paint6_linear_209_943)"/>
</g>
<path d="M304.037 107.775C301.303 110.147 299.637 112.574 298.868 114.964C298.093 117.373 298.259 119.658 299.046 121.652C300.591 125.563 304.476 128.257 308.091 128.867C311.696 129.476 315.735 128.375 318.729 125.975C321.767 123.54 323.779 119.717 323.135 114.957C321.832 105.332 310.5 102.03 304.037 107.775Z" stroke="#043763" stroke-width="2.87813"/>
<g filter="url(#filter7_i_209_943)">
<path d="M343.98 153.262C342.94 152.713 332.932 151.169 339.219 140.52C340.284 138.473 349.345 133.768 350.592 142.983C351.839 152.199 345.02 153.812 343.98 153.262Z" fill="url(#paint7_linear_209_943)"/>
</g>
<path d="M337.964 139.816C336.32 142.608 335.641 144.97 335.727 146.987C335.815 149.057 336.702 150.601 337.851 151.713C338.969 152.795 340.32 153.457 341.386 153.876C341.925 154.088 342.414 154.247 342.78 154.364C342.808 154.373 342.836 154.382 342.862 154.391C343.011 154.438 343.125 154.475 343.22 154.507C343.294 154.532 343.327 154.546 343.333 154.548C343.793 154.782 344.308 154.806 344.662 154.795C345.08 154.78 345.543 154.704 346.021 154.568C346.977 154.296 348.084 153.759 349.097 152.862C351.189 151.01 352.696 147.799 352.018 142.79C351.674 140.25 350.756 138.419 349.331 137.294C347.907 136.168 346.208 135.93 344.68 136.098C343.161 136.264 341.7 136.839 340.553 137.497C339.975 137.829 339.45 138.198 339.017 138.575C338.617 138.924 338.218 139.346 337.964 139.816Z" stroke="#65002C" stroke-opacity="0.48" stroke-width="2.87813"/>
<path d="M337.964 139.816C336.32 142.608 335.641 144.97 335.727 146.987C335.815 149.057 336.702 150.601 337.851 151.713C338.969 152.795 340.32 153.457 341.386 153.876C341.925 154.088 342.414 154.247 342.78 154.364C342.808 154.373 342.836 154.382 342.862 154.391C343.011 154.438 343.125 154.475 343.22 154.507C343.294 154.532 343.327 154.546 343.333 154.548C343.793 154.782 344.308 154.806 344.662 154.795C345.08 154.78 345.543 154.704 346.021 154.568C346.977 154.296 348.084 153.759 349.097 152.862C351.189 151.01 352.696 147.799 352.018 142.79C351.674 140.25 350.756 138.419 349.331 137.294C347.907 136.168 346.208 135.93 344.68 136.098C343.161 136.264 341.7 136.839 340.553 137.497C339.975 137.829 339.45 138.198 339.017 138.575C338.617 138.924 338.218 139.346 337.964 139.816Z" stroke="#65002C" stroke-opacity="0.48" stroke-width="2.87813"/>
<g filter="url(#filter8_i_209_943)">
<path d="M309.294 195.768C299.935 192.894 298.616 183.137 304.13 174.938C305.849 171.866 311.283 167.622 320.906 171.426C330.529 175.23 331.278 183.823 329.912 188.01C328.547 192.197 318.654 198.642 309.294 195.768Z" fill="url(#paint8_linear_209_943)"/>
</g>
<path d="M302.904 174.183C300.006 178.514 298.821 183.376 299.727 187.648C300.651 192.007 303.716 195.561 308.872 197.144C313.98 198.712 319.167 197.723 323.209 195.841C325.236 194.898 327.017 193.711 328.398 192.459C329.753 191.229 330.83 189.839 331.281 188.456C332.061 186.062 332.217 182.525 330.872 179.055C329.506 175.529 326.616 172.136 321.435 170.088C316.356 168.08 312.232 168.144 309.08 169.245C305.985 170.326 303.937 172.369 302.904 174.183Z" stroke="#043763" stroke-width="2.87813"/>
<g filter="url(#filter9_i_209_943)">
<path d="M244.74 198.017C241.019 199.072 231.425 196.506 236.559 187.532C237.882 184.248 245.454 179.842 248.891 185.863C252.328 191.884 248.461 196.961 244.74 198.017Z" fill="url(#paint9_linear_209_943)"/>
</g>
<path d="M235.264 186.897C233.911 189.291 233.427 191.442 233.727 193.33C234.033 195.263 235.125 196.703 236.477 197.696C237.81 198.674 239.421 199.244 240.924 199.504C242.416 199.762 243.941 199.739 245.133 199.401C247.409 198.756 249.631 196.93 250.804 194.409C252.008 191.822 252.085 188.556 250.141 185.15C249.119 183.36 247.724 182.251 246.132 181.749C244.571 181.258 242.955 181.391 241.512 181.832C240.068 182.272 238.725 183.04 237.646 183.927C236.616 184.775 235.727 185.813 235.264 186.897Z" stroke="#315457" stroke-width="2.87813"/>
<g filter="url(#filter10_i_209_943)">
<path d="M139.682 220.004C131.158 221.859 125.008 215.32 127.47 204.984C129.295 197.717 143.384 191.599 147.102 200.924C150.821 210.248 148.205 218.148 139.682 220.004Z" fill="url(#paint10_linear_209_943)"/>
</g>
<path d="M126.075 204.633L126.072 204.642L126.07 204.65C124.764 210.134 125.69 214.863 128.361 217.999C131.053 221.16 135.293 222.432 139.988 221.41C144.678 220.389 147.889 217.644 149.332 213.766C150.749 209.957 150.383 205.266 148.439 200.391C147.357 197.677 145.463 195.999 143.178 195.237C140.945 194.493 138.462 194.66 136.16 195.354C133.85 196.052 131.619 197.31 129.83 198.896C128.051 200.472 126.622 202.453 126.075 204.633Z" stroke="#65002C" stroke-opacity="0.48" stroke-width="2.87813"/>
<path d="M126.075 204.633L126.072 204.642L126.07 204.65C124.764 210.134 125.69 214.863 128.361 217.999C131.053 221.16 135.293 222.432 139.988 221.41C144.678 220.389 147.889 217.644 149.332 213.766C150.749 209.957 150.383 205.266 148.439 200.391C147.357 197.677 145.463 195.999 143.178 195.237C140.945 194.493 138.462 194.66 136.16 195.354C133.85 196.052 131.619 197.31 129.83 198.896C128.051 200.472 126.622 202.453 126.075 204.633Z" stroke="#65002C" stroke-opacity="0.48" stroke-width="2.87813"/>
<g filter="url(#filter11_i_209_943)">
<path d="M68.1052 195.402C64.4623 193.67 57.7934 182.169 68.3576 172.076C70.1496 170.16 79.4832 164.038 88.8178 172.149C98.1525 180.259 99.6162 186.878 92.9467 194.266C86.2772 201.655 71.7482 197.135 68.1052 195.402Z" fill="url(#paint11_linear_209_943)"/>
</g>
<path d="M67.3362 171.062C61.7194 176.444 60.6019 182.323 61.4885 187.135C61.9266 189.513 62.8488 191.607 63.9196 193.236C64.966 194.828 66.2445 196.111 67.4872 196.702C69.4513 197.636 74.1611 199.249 79.2677 199.688C84.3226 200.123 90.2157 199.439 94.0149 195.231C97.5283 191.339 99.1121 187.395 98.2964 183.203C97.5034 179.128 94.4996 175.179 89.7617 171.062C84.7254 166.686 79.5927 166.106 75.4728 166.942C71.4849 167.752 68.4565 169.884 67.3362 171.062Z" stroke="#043763" stroke-width="2.87813"/>
<defs>
<filter id="filter0_i_209_943" x="35.0176" y="82.7041" width="355.447" height="160.502" filterUnits="userSpaceOnUse" color-interpolation-filters="sRGB">
<feFlood flood-opacity="0" result="BackgroundImageFix"/>
<feBlend mode="normal" in="SourceGraphic" in2="BackgroundImageFix" result="shape"/>
<feColorMatrix in="SourceAlpha" type="matrix" values="0 0 0 0 0 0 0 0 0 0 0 0 0 0 0 0 0 0 127 0" result="hardAlpha"/>
<feOffset dx="7.19533" dy="2.87813"/>
<feGaussianBlur stdDeviation="11.1528"/>
<feComposite in2="hardAlpha" operator="arithmetic" k2="-1" k3="1"/>
<feColorMatrix type="matrix" values="0 0 0 0 0.898039 0 0 0 0 0.627451 0 0 0 0 0.521569 0 0 0 0.45 0"/>
<feBlend mode="normal" in2="shape" result="effect1_innerShadow_209_943"/>
</filter>
<filter id="filter1_i_209_943" x="82.5586" y="134.107" width="14.7441" height="18.8891" filterUnits="userSpaceOnUse" color-interpolation-filters="sRGB">
<feFlood flood-opacity="0" result="BackgroundImageFix"/>
<feBlend mode="normal" in="SourceGraphic" in2="BackgroundImageFix" result="shape"/>
<feColorMatrix in="SourceAlpha" type="matrix" values="0 0 0 0 0 0 0 0 0 0 0 0 0 0 0 0 0 0 127 0" result="hardAlpha"/>
<feOffset dy="5.75626"/>
<feGaussianBlur stdDeviation="1.43907"/>
<feComposite in2="hardAlpha" operator="arithmetic" k2="-1" k3="1"/>
<feColorMatrix type="matrix" values="0 0 0 0 0 0 0 0 0 0 0 0 0 0 0 0 0 0 0.25 0"/>
<feBlend mode="normal" in2="shape" result="effect1_innerShadow_209_943"/>
</filter>
<filter id="filter2_i_209_943" x="168.947" y="175.45" width="26.6348" height="27.0913" filterUnits="userSpaceOnUse" color-interpolation-filters="sRGB">
<feFlood flood-opacity="0" result="BackgroundImageFix"/>
<feBlend mode="normal" in="SourceGraphic" in2="BackgroundImageFix" result="shape"/>
<feColorMatrix in="SourceAlpha" type="matrix" values="0 0 0 0 0 0 0 0 0 0 0 0 0 0 0 0 0 0 127 0" result="hardAlpha"/>
<feOffset dy="5.75626"/>
<feGaussianBlur stdDeviation="1.43907"/>
<feComposite in2="hardAlpha" operator="arithmetic" k2="-1" k3="1"/>
<feColorMatrix type="matrix" values="0 0 0 0 0 0 0 0 0 0 0 0 0 0 0 0 0 0 0.25 0"/>
<feBlend mode="normal" in2="shape" result="effect1_innerShadow_209_943"/>
</filter>
<filter id="filter3_i_209_943" x="120.994" y="132.302" width="34.2051" height="35.998" filterUnits="userSpaceOnUse" color-interpolation-filters="sRGB">
<feFlood flood-opacity="0" result="BackgroundImageFix"/>
<feBlend mode="normal" in="SourceGraphic" in2="BackgroundImageFix" result="shape"/>
<feColorMatrix in="SourceAlpha" type="matrix" values="0 0 0 0 0 0 0 0 0 0 0 0 0 0 0 0 0 0 127 0" result="hardAlpha"/>
<feOffset dy="5.75626"/>
<feGaussianBlur stdDeviation="1.43907"/>
<feComposite in2="hardAlpha" operator="arithmetic" k2="-1" k3="1"/>
<feColorMatrix type="matrix" values="0 0 0 0 0 0 0 0 0 0 0 0 0 0 0 0 0 0 0.25 0"/>
<feBlend mode="normal" in2="shape" result="effect1_innerShadow_209_943"/>
</filter>
<filter id="filter4_i_209_943" x="193.736" y="131.122" width="41.4004" height="41.7329" filterUnits="userSpaceOnUse" color-interpolation-filters="sRGB">
<feFlood flood-opacity="0" result="BackgroundImageFix"/>
<feBlend mode="normal" in="SourceGraphic" in2="BackgroundImageFix" result="shape"/>
<feColorMatrix in="SourceAlpha" type="matrix" values="0 0 0 0 0 0 0 0 0 0 0 0 0 0 0 0 0 0 127 0" result="hardAlpha"/>
<feOffset dy="5.75626"/>
<feGaussianBlur stdDeviation="1.43907"/>
<feComposite in2="hardAlpha" operator="arithmetic" k2="-1" k3="1"/>
<feColorMatrix type="matrix" values="0 0 0 0 0 0 0 0 0 0 0 0 0 0 0 0 0 0 0.25 0"/>
<feBlend mode="normal" in2="shape" result="effect1_innerShadow_209_943"/>
</filter>
<filter id="filter5_i_209_943" x="261.912" y="133.905" width="34.0176" height="34.4577" filterUnits="userSpaceOnUse" color-interpolation-filters="sRGB">
<feFlood flood-opacity="0" result="BackgroundImageFix"/>
<feBlend mode="normal" in="SourceGraphic" in2="BackgroundImageFix" result="shape"/>
<feColorMatrix in="SourceAlpha" type="matrix" values="0 0 0 0 0 0 0 0 0 0 0 0 0 0 0 0 0 0 127 0" result="hardAlpha"/>
<feOffset dy="5.75626"/>
<feGaussianBlur stdDeviation="1.43907"/>
<feComposite in2="hardAlpha" operator="arithmetic" k2="-1" k3="1"/>
<feColorMatrix type="matrix" values="0 0 0 0 0 0 0 0 0 0 0 0 0 0 0 0 0 0 0.25 0"/>
<feBlend mode="normal" in2="shape" result="effect1_innerShadow_209_943"/>
</filter>
<filter id="filter6_i_209_943" x="299.803" y="106.379" width="22.0137" height="24.0922" filterUnits="userSpaceOnUse" color-interpolation-filters="sRGB">
<feFlood flood-opacity="0" result="BackgroundImageFix"/>
<feBlend mode="normal" in="SourceGraphic" in2="BackgroundImageFix" result="shape"/>
<feColorMatrix in="SourceAlpha" type="matrix" values="0 0 0 0 0 0 0 0 0 0 0 0 0 0 0 0 0 0 127 0" result="hardAlpha"/>
<feOffset dy="5.75626"/>
<feGaussianBlur stdDeviation="1.43907"/>
<feComposite in2="hardAlpha" operator="arithmetic" k2="-1" k3="1"/>
<feColorMatrix type="matrix" values="0 0 0 0 0 0 0 0 0 0 0 0 0 0 0 0 0 0 0.25 0"/>
<feBlend mode="normal" in2="shape" result="effect1_innerShadow_209_943"/>
</filter>
<filter id="filter7_i_209_943" x="334.281" y="134.611" width="19.3398" height="24.5036" filterUnits="userSpaceOnUse" color-interpolation-filters="sRGB">
<feFlood flood-opacity="0" result="BackgroundImageFix"/>
<feBlend mode="normal" in="SourceGraphic" in2="BackgroundImageFix" result="shape"/>
<feColorMatrix in="SourceAlpha" type="matrix" values="0 0 0 0 0 0 0 0 0 0 0 0 0 0 0 0 0 0 127 0" result="hardAlpha"/>
<feOffset dy="5.75626"/>
<feGaussianBlur stdDeviation="1.43907"/>
<feComposite in2="hardAlpha" operator="arithmetic" k2="-1" k3="1"/>
<feColorMatrix type="matrix" values="0 0 0 0 0 0 0 0 0 0 0 0 0 0 0 0 0 0 0.25 0"/>
<feBlend mode="normal" in2="shape" result="effect1_innerShadow_209_943"/>
</filter>
<filter id="filter8_i_209_943" x="300.867" y="169.921" width="29.5703" height="29.4397" filterUnits="userSpaceOnUse" color-interpolation-filters="sRGB">
<feFlood flood-opacity="0" result="BackgroundImageFix"/>
<feBlend mode="normal" in="SourceGraphic" in2="BackgroundImageFix" result="shape"/>
<feColorMatrix in="SourceAlpha" type="matrix" values="0 0 0 0 0 0 0 0 0 0 0 0 0 0 0 0 0 0 127 0" result="hardAlpha"/>
<feOffset dy="5.75626"/>
<feGaussianBlur stdDeviation="1.43907"/>
<feComposite in2="hardAlpha" operator="arithmetic" k2="-1" k3="1"/>
<feColorMatrix type="matrix" values="0 0 0 0 0 0 0 0 0 0 0 0 0 0 0 0 0 0 0.25 0"/>
<feBlend mode="normal" in2="shape" result="effect1_innerShadow_209_943"/>
</filter>
<filter id="filter9_i_209_943" x="235.08" y="182.875" width="15.1445" height="18.2424" filterUnits="userSpaceOnUse" color-interpolation-filters="sRGB">
<feFlood flood-opacity="0" result="BackgroundImageFix"/>
<feBlend mode="normal" in="SourceGraphic" in2="BackgroundImageFix" result="shape"/>
<feColorMatrix in="SourceAlpha" type="matrix" values="0 0 0 0 0 0 0 0 0 0 0 0 0 0 0 0 0 0 127 0" result="hardAlpha"/>
<feOffset dy="5.75626"/>
<feGaussianBlur stdDeviation="1.43907"/>
<feComposite in2="hardAlpha" operator="arithmetic" k2="-1" k3="1"/>
<feColorMatrix type="matrix" values="0 0 0 0 0 0 0 0 0 0 0 0 0 0 0 0 0 0 0.25 0"/>
<feBlend mode="normal" in2="shape" result="effect1_innerShadow_209_943"/>
</filter>
<filter id="filter10_i_209_943" x="124.047" y="193.312" width="27.582" height="32.7605" filterUnits="userSpaceOnUse" color-interpolation-filters="sRGB">
<feFlood flood-opacity="0" result="BackgroundImageFix"/>
<feBlend mode="normal" in="SourceGraphic" in2="BackgroundImageFix" result="shape"/>
<feColorMatrix in="SourceAlpha" type="matrix" values="0 0 0 0 0 0 0 0 0 0 0 0 0 0 0 0 0 0 127 0" result="hardAlpha"/>
<feOffset dy="5.75626"/>
<feGaussianBlur stdDeviation="1.43907"/>
<feComposite in2="hardAlpha" operator="arithmetic" k2="-1" k3="1"/>
<feColorMatrix type="matrix" values="0 0 0 0 0 0 0 0 0 0 0 0 0 0 0 0 0 0 0.25 0"/>
<feBlend mode="normal" in2="shape" result="effect1_innerShadow_209_943"/>
</filter>
<filter id="filter11_i_209_943" x="62.6562" y="168.056" width="34.4102" height="33.1843" filterUnits="userSpaceOnUse" color-interpolation-filters="sRGB">
<feFlood flood-opacity="0" result="BackgroundImageFix"/>
<feBlend mode="normal" in="SourceGraphic" in2="BackgroundImageFix" result="shape"/>
<feColorMatrix in="SourceAlpha" type="matrix" values="0 0 0 0 0 0 0 0 0 0 0 0 0 0 0 0 0 0 127 0" result="hardAlpha"/>
<feOffset dy="5.75626"/>
<feGaussianBlur stdDeviation="1.43907"/>
<feComposite in2="hardAlpha" operator="arithmetic" k2="-1" k3="1"/>
<feColorMatrix type="matrix" values="0 0 0 0 0 0 0 0 0 0 0 0 0 0 0 0 0 0 0.25 0"/>
<feBlend mode="normal" in2="shape" result="effect1_innerShadow_209_943"/>
</filter>
<linearGradient id="paint0_linear_209_943" x1="25.917" y1="269.689" x2="423.785" y2="62.0429" gradientUnits="userSpaceOnUse">
<stop stop-color="#FFE5CF" stop-opacity="0.53"/>
<stop offset="0.575" stop-color="#FDD2AF" stop-opacity="0.80025"/>
<stop offset="1" stop-color="#FBC497"/>
</linearGradient>
<linearGradient id="paint1_linear_209_943" x1="84.9589" y1="134.612" x2="95.6488" y2="147.749" gradientUnits="userSpaceOnUse">
<stop stop-color="#5FBCBD"/>
<stop offset="1" stop-color="#F4F1BE"/>
</linearGradient>
<linearGradient id="paint2_linear_209_943" x1="173.332" y1="176.504" x2="191.349" y2="201.582" gradientUnits="userSpaceOnUse">
<stop stop-color="#034B86"/>
<stop offset="1" stop-color="#64CFE6"/>
</linearGradient>
<linearGradient id="paint3_linear_209_943" x1="126.836" y1="133.624" x2="148.027" y2="162.465" gradientUnits="userSpaceOnUse">
<stop stop-color="#5FBCBD"/>
<stop offset="1" stop-color="#F4F1BE"/>
</linearGradient>
<linearGradient id="paint4_linear_209_943" x1="200.974" y1="135.453" x2="221.079" y2="166.175" gradientUnits="userSpaceOnUse">
<stop stop-color="#DE0D6E" stop-opacity="0.9"/>
<stop offset="1" stop-color="#F3C2A7"/>
</linearGradient>
<linearGradient id="paint5_linear_209_943" x1="267.605" y1="135.086" x2="287.551" y2="163.262" gradientUnits="userSpaceOnUse">
<stop stop-color="#5FBCBD"/>
<stop offset="1" stop-color="#F4F1BE"/>
</linearGradient>
<linearGradient id="paint6_linear_209_943" x1="303.343" y1="107.401" x2="319.026" y2="128.759" gradientUnits="userSpaceOnUse">
<stop stop-color="#034B86"/>
<stop offset="1" stop-color="#64CFE6"/>
</linearGradient>
<linearGradient id="paint7_linear_209_943" x1="338.595" y1="138.37" x2="348.806" y2="151.5" gradientUnits="userSpaceOnUse">
<stop stop-color="#DE0D6E" stop-opacity="0.9"/>
<stop offset="1" stop-color="#F3C2A7"/>
</linearGradient>
<linearGradient id="paint8_linear_209_943" x1="305.626" y1="170.894" x2="325.167" y2="198.703" gradientUnits="userSpaceOnUse">
<stop stop-color="#034B86"/>
<stop offset="1" stop-color="#64CFE6"/>
</linearGradient>
<linearGradient id="paint9_linear_209_943" x1="237.455" y1="183.708" x2="247.263" y2="196.805" gradientUnits="userSpaceOnUse">
<stop stop-color="#5FBCBD"/>
<stop offset="1" stop-color="#F4F1BE"/>
</linearGradient>
<linearGradient id="paint10_linear_209_943" x1="129.331" y1="197.543" x2="144.524" y2="217.954" gradientUnits="userSpaceOnUse">
<stop stop-color="#DE0D6E" stop-opacity="0.9"/>
<stop offset="1" stop-color="#F3C2A7"/>
</linearGradient>
<linearGradient id="paint11_linear_209_943" x1="68.3087" y1="169.328" x2="90.881" y2="201.446" gradientUnits="userSpaceOnUse">
<stop stop-color="#034B86"/>
<stop offset="1" stop-color="#64CFE6"/>
</linearGradient>
</defs>
</svg>
